<?xml version="1.0" encoding="UTF-8" standalone="no"?>
<svg
   xmlns:dc="http://purl.org/dc/elements/1.1/"
   xmlns:cc="http://creativecommons.org/ns#"
   xmlns:rdf="http://www.w3.org/1999/02/22-rdf-syntax-ns#"
   xmlns:svg="http://www.w3.org/2000/svg"
   xmlns="http://www.w3.org/2000/svg"
   xmlns:sodipodi="http://sodipodi.sourceforge.net/DTD/sodipodi-0.dtd"
   xmlns:inkscape="http://www.inkscape.org/namespaces/inkscape"
   preserveAspectRatio="xMinYMin meet"
   width="100%"
   height="100%"
   viewBox="0 0 222.425 154.85"
   version="1.0"
   id="svg2"
   sodipodi:version="0.32"
   inkscape:version="0.46"
   sodipodi:docname="sine_wavelength.svg"
   inkscape:output_extension="org.inkscape.output.svg.inkscape">
  <metadata
     id="metadata288">
    <rdf:RDF>
      <cc:Work
         rdf:about="">
        <dc:format>image/svg+xml</dc:format>
        <dc:type
           rdf:resource="http://purl.org/dc/dcmitype/StillImage" />
      </cc:Work>
    </rdf:RDF>
  </metadata>
  <defs
     id="defs286">
    <inkscape:perspective
       sodipodi:type="inkscape:persp3d"
       inkscape:vp_x="0 : 0.5 : 1"
       inkscape:vp_y="0 : 1000 : 0"
       inkscape:vp_z="1 : 0.5 : 1"
       inkscape:persp3d-origin="0.5 : 0.33333333 : 1"
       id="perspective290" />
    <clipPath
       id="ID000000">
      <rect
         id="rect11"
         height="154.85001"
         width="222.425"
         y="14.25"
         x="37.310001" />
    </clipPath>
  </defs>
  <sodipodi:namedview
     inkscape:window-height="713"
     inkscape:window-width="915"
     inkscape:pageshadow="2"
     inkscape:pageopacity="0.0"
     guidetolerance="10.0"
     gridtolerance="10.0"
     objecttolerance="10.0"
     borderopacity="1.0"
     bordercolor="#666666"
     pagecolor="#ffffff"
     id="base"
     showgrid="false"
     inkscape:zoom="0.94599303"
     inkscape:cx="143.5"
     inkscape:cy="53.670254"
     inkscape:window-x="372"
     inkscape:window-y="84"
     inkscape:current-layer="svg2" />
  <desc
     id="desc4">Matlab Figure Converted by PLOT2SVG written by Juerg Schwizer</desc>
  <polyline
     style="fill:#ffffff;fill-opacity:1;stroke:none;stroke-width:0.5pt;stroke-dasharray:none;stroke-opacity:1"
     id="polyline17"
     points="37.310,169.100 37.310,169.100 37.310,14.250 37.310,14.250 "
     transform="translate(-37.31,-14.25)" />
  <polyline
     style="fill:none;stroke:#ff0000;stroke-width:1.49999997999999990;stroke-dasharray:none;stroke-opacity:1;stroke-miterlimit:4"
     id="polyline23"
     points="48.431,108.888 48.709,108.060 48.987,107.227 49.265,106.389 49.543,105.547 49.821,104.700 50.099,103.850 50.377,102.996 50.655,102.138 50.934,101.278 51.212,100.414 51.490,99.548 51.768,98.679 52.046,97.808 52.324,96.936 52.602,96.061 52.880,95.186 53.158,94.309 53.436,93.431 53.714,92.553 53.992,91.675 54.270,90.797 54.548,89.919 54.826,89.041 55.104,88.164 55.382,87.289 55.660,86.414 55.938,85.542 56.216,84.671 56.494,83.802 56.772,82.936 57.050,82.072 57.328,81.212 57.606,80.354 57.884,79.500 58.162,78.650 58.440,77.803 58.718,76.961 58.996,76.123 59.274,75.290 59.552,74.462 59.831,73.640 60.109,72.822 60.387,72.011 60.665,71.205 60.943,70.406 61.221,69.613 61.499,68.827 61.777,68.048 62.055,67.276 62.333,66.512 62.611,65.755 62.889,65.006 63.167,64.265 63.445,63.533 63.723,62.809 64.001,62.094 64.279,61.388 64.557,60.691 64.835,60.004 65.113,59.326 65.391,58.658 65.669,58.000 65.947,57.353 66.225,56.715 66.503,56.089 66.781,55.473 67.059,54.869 67.337,54.275 67.615,53.693 67.893,53.123 68.171,52.564 68.450,52.017 68.728,51.483 69.006,50.960 69.284,50.450 69.562,49.953 69.840,49.468 70.118,48.996 70.396,48.537 70.674,48.091 70.952,47.659 71.230,47.240 71.508,46.834 71.786,46.442 72.064,46.064 72.342,45.700 72.620,45.349 72.898,45.013 73.176,44.691 73.454,44.384 73.732,44.091 74.010,43.812 74.288,43.548 74.566,43.298 74.844,43.064 75.122,42.844 75.400,42.639 75.678,42.448 75.956,42.273 76.234,42.113 76.512,41.968 76.790,41.839 77.068,41.724 77.346,41.624 77.625,41.540 77.903,41.471 78.181,41.418 78.459,41.379 78.737,41.356 79.015,41.349 79.293,41.356 79.571,41.379 79.849,41.418 80.127,41.471 80.405,41.540 80.683,41.624 80.961,41.724 81.239,41.839 81.517,41.968 81.795,42.113 82.073,42.273 82.351,42.448 82.629,42.639 82.907,42.844 83.185,43.064 83.463,43.298 83.741,43.548 84.019,43.812 84.297,44.091 84.575,44.384 84.853,44.691 85.131,45.013 85.409,45.349 85.687,45.700 85.965,46.064 86.243,46.442 86.522,46.834 86.800,47.240 87.078,47.659 87.356,48.091 87.634,48.537 87.912,48.996 88.190,49.468 88.468,49.953 88.746,50.450 89.024,50.960 89.302,51.483 89.580,52.017 89.858,52.564 90.136,53.123 90.414,53.693 90.692,54.275 90.970,54.869 91.248,55.473 91.526,56.089 91.804,56.715 92.082,57.353 92.360,58.000 92.638,58.658 92.916,59.326 93.194,60.004 93.472,60.691 93.750,61.388 94.028,62.094 94.306,62.809 94.584,63.533 94.862,64.265 95.140,65.006 95.419,65.755 95.697,66.512 95.975,67.276 96.253,68.048 96.531,68.827 96.809,69.613 97.087,70.406 97.365,71.205 97.643,72.011 97.921,72.822 98.199,73.640 98.477,74.462 98.755,75.290 99.033,76.123 99.311,76.961 99.589,77.803 99.867,78.650 100.145,79.500 100.423,80.354 100.701,81.212 100.979,82.072 101.257,82.936 101.535,83.802 101.813,84.671 102.091,85.542 102.369,86.414 102.647,87.289 102.925,88.164 103.203,89.041 103.481,89.919 103.759,90.797 104.037,91.675 104.316,92.553 104.594,93.431 104.872,94.309 105.150,95.186 105.428,96.061 105.706,96.936 105.984,97.808 106.262,98.679 106.540,99.548 106.818,100.414 107.096,101.278 107.374,102.138 107.652,102.996 107.930,103.850 108.208,104.700 108.486,105.547 108.764,106.389 109.042,107.227 109.320,108.060 109.598,108.888 109.876,109.710 110.154,110.528 110.432,111.339 110.710,112.145 110.988,112.944 111.266,113.737 111.544,114.523 111.822,115.302 112.100,116.074 112.378,116.838 112.656,117.595 112.934,118.344 113.213,119.085 113.491,119.817 113.769,120.541 114.047,121.256 114.325,121.962 114.603,122.659 114.881,123.346 115.159,124.024 115.437,124.692 115.715,125.350 115.993,125.997 116.271,126.635 116.549,127.261 116.827,127.877 117.105,128.481 117.383,129.075 117.661,129.657 117.939,130.227 118.217,130.786 118.495,131.333 118.773,131.867 119.051,132.390 119.329,132.900 119.607,133.397 119.885,133.882 120.163,134.354 120.441,134.813 120.719,135.259 120.997,135.691 121.275,136.110 121.553,136.516 121.831,136.908 122.110,137.286 122.388,137.650 122.666,138.001 122.944,138.337 123.222,138.659 123.500,138.966 123.778,139.259 124.056,139.538 124.334,139.802 124.612,140.052 124.890,140.286 125.168,140.506 125.446,140.711 125.724,140.902 126.002,141.077 126.280,141.237 126.558,141.382 126.836,141.511 127.114,141.626 127.392,141.726 127.670,141.810 127.948,141.879 128.226,141.932 128.504,141.971 128.782,141.994 129.060,142.001 129.338,141.994 129.616,141.971 129.894,141.932 130.172,141.879 130.450,141.810 130.728,141.726 131.007,141.626 131.285,141.511 131.563,141.382 131.841,141.237 132.119,141.077 132.397,140.902 132.675,140.711 132.953,140.506 133.231,140.286 133.509,140.052 133.787,139.802 134.065,139.538 134.343,139.259 134.621,138.966 134.899,138.659 135.177,138.337 135.455,138.001 135.733,137.650 136.011,137.286 136.289,136.908 136.567,136.516 136.845,136.110 137.123,135.691 137.401,135.259 137.679,134.813 137.957,134.354 138.235,133.882 138.513,133.397 138.791,132.900 139.069,132.390 139.347,131.867 139.625,131.333 139.904,130.786 140.182,130.227 140.460,129.657 140.738,129.075 141.016,128.481 141.294,127.877 141.572,127.261 141.850,126.635 142.128,125.997 142.406,125.350 142.684,124.692 142.962,124.024 143.240,123.346 143.518,122.659 143.796,121.962 144.074,121.256 144.352,120.541 144.630,119.817 144.908,119.085 145.186,118.344 145.464,117.595 145.742,116.838 146.020,116.074 146.298,115.302 146.576,114.523 146.854,113.737 147.132,112.944 147.410,112.145 147.688,111.339 147.966,110.528 148.244,109.710 148.522,108.888 148.801,108.060 149.079,107.227 149.357,106.389 149.635,105.547 149.913,104.700 150.191,103.850 150.469,102.996 150.747,102.138 151.025,101.278 151.303,100.414 151.581,99.548 151.859,98.679 152.137,97.808 152.415,96.936 152.693,96.061 152.971,95.186 153.249,94.309 153.527,93.431 153.805,92.553 154.083,91.675 154.361,90.797 154.639,89.919 154.917,89.041 155.195,88.164 155.473,87.289 155.751,86.414 156.029,85.542 156.307,84.671 156.585,83.802 156.863,82.936 157.141,82.072 157.419,81.212 157.698,80.354 157.976,79.500 158.254,78.650 158.532,77.803 158.810,76.961 159.088,76.123 159.366,75.290 159.644,74.462 159.922,73.640 160.200,72.822 160.478,72.011 160.756,71.205 161.034,70.406 161.312,69.613 161.590,68.827 161.868,68.048 162.146,67.276 162.424,66.512 162.702,65.755 162.980,65.006 163.258,64.265 163.536,63.533 163.814,62.809 164.092,62.094 164.370,61.388 164.648,60.691 164.926,60.004 165.204,59.326 165.482,58.658 165.760,58.000 166.038,57.353 166.316,56.715 166.595,56.089 166.873,55.473 167.151,54.869 167.429,54.275 167.707,53.693 167.985,53.123 168.263,52.564 168.541,52.017 168.819,51.483 169.097,50.960 169.375,50.450 169.653,49.953 169.931,49.468 170.209,48.996 170.487,48.537 170.765,48.091 171.043,47.659 171.321,47.240 171.599,46.834 171.877,46.442 172.155,46.064 172.433,45.700 172.711,45.349 172.989,45.013 173.267,44.691 173.545,44.384 173.823,44.091 174.101,43.812 174.379,43.548 174.657,43.298 174.935,43.064 175.214,42.844 175.492,42.639 175.770,42.448 176.048,42.273 176.326,42.113 176.604,41.968 176.882,41.839 177.160,41.724 177.438,41.624 177.716,41.540 177.994,41.471 178.272,41.418 178.550,41.379 178.828,41.356 179.106,41.349 179.384,41.356 179.662,41.379 179.940,41.418 180.218,41.471 180.496,41.540 180.774,41.624 181.052,41.724 181.330,41.839 181.608,41.968 181.886,42.113 182.164,42.273 182.442,42.448 182.720,42.639 182.998,42.844 183.276,43.064 183.554,43.298 183.832,43.548 184.111,43.812 184.389,44.091 184.667,44.384 184.945,44.691 185.223,45.013 185.501,45.349 185.779,45.700 186.057,46.064 186.335,46.442 186.613,46.834 186.891,47.240 187.169,47.659 187.447,48.091 187.725,48.537 188.003,48.996 188.281,49.468 188.559,49.953 188.837,50.450 189.115,50.960 189.393,51.483 189.671,52.017 189.949,52.564 190.227,53.123 190.505,53.693 190.783,54.275 191.061,54.869 191.339,55.473 191.617,56.089 191.895,56.715 192.173,57.353 192.451,58.000 192.729,58.658 193.007,59.326 193.286,60.004 193.564,60.691 193.842,61.388 194.120,62.094 194.398,62.809 194.676,63.533 194.954,64.265 195.232,65.006 195.510,65.755 195.788,66.512 196.066,67.276 196.344,68.048 196.622,68.827 196.900,69.613 197.178,70.406 197.456,71.205 197.734,72.011 198.012,72.822 198.290,73.640 198.568,74.462 198.846,75.290 199.124,76.123 199.402,76.961 199.680,77.803 199.958,78.650 200.236,79.500 200.514,80.354 200.792,81.212 201.070,82.072 201.348,82.936 201.626,83.802 201.905,84.671 202.183,85.542 202.461,86.414 202.739,87.289 203.017,88.164 203.295,89.041 203.573,89.919 203.851,90.797 204.129,91.675 204.407,92.553 204.685,93.431 204.963,94.309 205.241,95.186 205.519,96.061 205.797,96.936 206.075,97.808 206.353,98.679 206.631,99.548 206.909,100.414 207.187,101.278 207.465,102.138 207.743,102.996 208.021,103.850 208.299,104.700 208.577,105.547 208.855,106.389 209.133,107.227 209.411,108.060 209.689,108.888 209.967,109.710 210.245,110.528 210.523,111.339 210.801,112.145 211.080,112.944 211.358,113.737 211.636,114.523 211.914,115.302 212.192,116.074 212.470,116.838 212.748,117.595 213.026,118.344 213.304,119.085 213.582,119.817 213.860,120.541 214.138,121.256 214.416,121.962 214.694,122.659 214.972,123.346 215.250,124.024 215.528,124.692 215.806,125.350 216.084,125.997 216.362,126.635 216.640,127.261 216.918,127.877 217.196,128.481 217.474,129.075 217.752,129.657 218.030,130.227 218.308,130.786 218.586,131.333 218.864,131.867 219.142,132.390 219.420,132.900 219.698,133.397 219.977,133.882 220.255,134.354 220.533,134.813 220.811,135.259 221.089,135.691 221.367,136.110 221.645,136.516 221.923,136.908 222.201,137.286 222.479,137.650 222.757,138.001 223.035,138.337 223.313,138.659 223.591,138.966 223.869,139.259 224.147,139.538 224.425,139.802 224.703,140.052 224.981,140.286 225.259,140.506 225.537,140.711 225.815,140.902 226.093,141.077 226.371,141.237 226.649,141.382 226.927,141.511 227.205,141.626 227.483,141.726 227.761,141.810 228.039,141.879 228.317,141.932 228.595,141.971 228.874,141.994 229.152,142.001 229.430,141.994 229.708,141.971 229.986,141.932 230.264,141.879 230.542,141.810 230.820,141.726 231.098,141.626 231.376,141.511 231.654,141.382 231.932,141.237 232.210,141.077 232.488,140.902 232.766,140.711 233.044,140.506 233.322,140.286 233.600,140.052 233.878,139.802 234.156,139.538 234.434,139.259 234.712,138.966 234.990,138.659 235.268,138.337 235.546,138.001 235.824,137.650 236.102,137.286 236.380,136.908 236.658,136.516 236.936,136.110 237.214,135.691 237.492,135.259 237.771,134.813 238.049,134.354 238.327,133.882 238.605,133.397 238.883,132.900 239.161,132.390 239.439,131.867 239.717,131.333 239.995,130.786 240.273,130.227 240.551,129.657 240.829,129.075 241.107,128.481 241.385,127.877 241.663,127.261 241.941,126.635 242.219,125.997 242.497,125.350 242.775,124.692 243.053,124.024 243.331,123.346 243.609,122.659 243.887,121.962 244.165,121.256 244.443,120.541 244.721,119.817 244.999,119.085 245.277,118.344 245.555,117.595 245.833,116.838 246.111,116.074 246.389,115.302 246.668,114.523 246.946,113.737 247.224,112.944 247.502,112.145 247.780,111.339 248.058,110.528 248.336,109.710 248.614,108.888 "
     transform="translate(-35.19582,-14.25)" />
  <polyline
     style="fill:none;stroke:#ff0000;stroke-width:1.09999997999999999;stroke-dasharray:none;stroke-miterlimit:4;stroke-opacity:1"
     id="polyline29"
     points="48.431,91.675 248.614,91.675 "
     transform="translate(-35.19582,-14.25)" />
  <g
     id="g31"
     transform="translate(-35.19582,-14.25)" />
  <polyline
     style="fill:none;stroke:#ff0000;stroke-width:1.09999997999999999;stroke-dasharray:none;stroke-miterlimit:4;stroke-opacity:1"
     id="polyline35"
     points="240.273,88.578 248.614,91.675 "
     transform="translate(-35.19582,-14.25)" />
  <g
     id="g37"
     transform="translate(-35.19582,-14.25)" />
  <polyline
     style="fill:none;stroke:#ff0000;stroke-width:1.09999997999999999;stroke-dasharray:none;stroke-miterlimit:4;stroke-opacity:1"
     id="polyline41"
     points="240.273,94.772 248.614,91.675 "
     transform="translate(-35.19582,-14.25)" />
  <g
     id="g43"
     transform="translate(-35.19582,-14.25)" />
  <polyline
     style="fill:none;stroke:#ff0000;stroke-width:1.09999997999999999;stroke-dasharray:none;stroke-miterlimit:4;stroke-opacity:1"
     id="polyline47"
     points="53.992,145.872 53.992,37.478 "
     transform="translate(-35.19582,-14.25)" />
  <g
     id="g49"
     transform="translate(-35.19582,-14.25)"
     style="stroke-width:1.09999997999999999;stroke-miterlimit:4;stroke-dasharray:none;stroke:#ff0000;stroke-opacity:1" />
  <polyline
     style="fill:none;stroke:#ff0000;stroke-width:1.09999997999999999;stroke-dasharray:none;stroke-miterlimit:4;stroke-opacity:1"
     id="polyline53"
     points="51.212,46.768 53.992,37.478 "
     transform="translate(-35.19582,-14.25)" />
  <g
     id="g55"
     transform="translate(-35.19582,-14.25)"
     style="stroke-width:1.09999997999999999;stroke-miterlimit:4;stroke-dasharray:none;stroke:#ff0000;stroke-opacity:1" />
  <polyline
     style="fill:none;stroke:#ff0000;stroke-width:1.09999997999999999;stroke-dasharray:none;stroke-miterlimit:4;stroke-opacity:1"
     id="polyline59"
     points="56.772,46.768 53.992,37.478 "
     transform="translate(-35.19582,-14.25)" />
  <g
     id="g61"
     transform="translate(-35.19582,-14.25)"
     style="stroke-width:1.09999997999999999;stroke-miterlimit:4;stroke-dasharray:none;stroke:#ff0000;stroke-opacity:1" />
  <polyline
     style="fill:none;stroke:#000000;stroke-width:1.09999998;stroke-dasharray:none;stroke-miterlimit:4"
     id="polyline65"
     points="79.015,37.478 79.015,21.993 "
     transform="translate(-35.19582,-14.25)" />
  <g
     id="g67"
     transform="translate(-35.19582,-14.25)"
     style="stroke-width:1.09999998;stroke-miterlimit:4;stroke-dasharray:none" />
  <polyline
     style="fill:none;stroke:#000000;stroke-width:1.09999998;stroke-dasharray:none;stroke-miterlimit:4"
     id="polyline71"
     points="179.106,37.478 179.106,21.993 "
     transform="translate(-35.19582,-14.25)" />
  <g
     id="g73"
     transform="translate(-35.19582,-14.25)"
     style="stroke-width:1.09999998;stroke-miterlimit:4;stroke-dasharray:none" />
  <polyline
     style="fill:none;stroke:#000000;stroke-width:1.09999998;stroke-dasharray:none;stroke-miterlimit:4"
     id="polyline77"
     points="79.015,26.638 179.106,26.638 "
     transform="translate(-35.19582,-14.25)" />
  <g
     id="g79"
     transform="translate(-35.19582,-14.25)"
     style="stroke-width:1.09999998;stroke-miterlimit:4;stroke-dasharray:none" />
  <polyline
     style="fill:none;stroke:#000000;stroke-width:1.09999998;stroke-dasharray:none;stroke-miterlimit:4"
     id="polyline83"
     points="79.015,26.638 87.356,23.541 "
     transform="translate(-35.19582,-14.25)" />
  <g
     id="g85"
     transform="translate(-35.19582,-14.25)"
     style="stroke-width:1.09999998;stroke-miterlimit:4;stroke-dasharray:none" />
  <polyline
     style="fill:none;stroke:#000000;stroke-width:1.09999998;stroke-dasharray:none;stroke-miterlimit:4"
     id="polyline89"
     points="179.106,26.638 170.765,23.541 "
     transform="translate(-35.19582,-14.25)" />
  <g
     id="g91"
     transform="translate(-35.19582,-14.25)"
     style="stroke-width:1.09999998;stroke-miterlimit:4;stroke-dasharray:none" />
  <polyline
     style="fill:none;stroke:#000000;stroke-width:1.09999998;stroke-dasharray:none;stroke-miterlimit:4"
     id="polyline95"
     points="79.015,26.638 87.356,29.735 "
     transform="translate(-35.19582,-14.25)" />
  <g
     id="g97"
     transform="translate(-35.19582,-14.25)"
     style="stroke-width:1.09999998;stroke-miterlimit:4;stroke-dasharray:none" />
  <polyline
     style="fill:none;stroke:#000000;stroke-width:1.09999998;stroke-dasharray:none;stroke-miterlimit:4"
     id="polyline101"
     points="179.106,26.638 170.765,29.735 "
     transform="translate(-35.19582,-14.25)" />
  <g
     id="g103"
     transform="translate(-35.19582,-14.25)"
     style="stroke-width:1.09999998;stroke-miterlimit:4;stroke-dasharray:none" />
  <polyline
     style="fill:none;stroke:#000000;stroke-width:1.09999998;stroke-dasharray:none;stroke-miterlimit:4"
     id="polyline107"
     points="129.060,145.872 129.060,161.358 "
     transform="translate(-35.19582,-14.25)" />
  <g
     id="g109"
     transform="translate(-35.19582,-14.25)"
     style="stroke-width:1.09999998;stroke-miterlimit:4;stroke-dasharray:none" />
  <polyline
     style="fill:none;stroke:#000000;stroke-width:1.09999998;stroke-dasharray:none;stroke-miterlimit:4"
     id="polyline113"
     points="229.152,145.872 229.152,161.358 "
     transform="translate(-35.19582,-14.25)" />
  <g
     id="g115"
     transform="translate(-35.19582,-14.25)"
     style="stroke-width:1.09999998;stroke-miterlimit:4;stroke-dasharray:none" />
  <polyline
     style="fill:none;stroke:#000000;stroke-width:1.09999998;stroke-dasharray:none;stroke-miterlimit:4"
     id="polyline119"
     points="129.060,156.712 229.152,156.712 "
     transform="translate(-35.19582,-14.25)" />
  <g
     id="g121"
     transform="translate(-35.19582,-14.25)"
     style="stroke-width:1.09999998;stroke-miterlimit:4;stroke-dasharray:none" />
  <polyline
     style="fill:none;stroke:#000000;stroke-width:1.09999998;stroke-dasharray:none;stroke-miterlimit:4"
     id="polyline125"
     points="129.060,156.712 137.401,159.809 "
     transform="translate(-35.19582,-14.25)" />
  <g
     id="g127"
     transform="translate(-35.19582,-14.25)"
     style="stroke-width:1.09999998;stroke-miterlimit:4;stroke-dasharray:none" />
  <polyline
     style="fill:none;stroke:#000000;stroke-width:1.09999998;stroke-dasharray:none;stroke-miterlimit:4"
     id="polyline131"
     points="229.152,156.712 220.811,159.809 "
     transform="translate(-35.19582,-14.25)" />
  <g
     id="g133"
     transform="translate(-35.19582,-14.25)"
     style="stroke-width:1.09999998;stroke-miterlimit:4;stroke-dasharray:none" />
  <polyline
     style="fill:none;stroke:#000000;stroke-width:1.09999998;stroke-dasharray:none;stroke-miterlimit:4"
     id="polyline137"
     points="129.060,156.712 137.401,153.615 "
     transform="translate(-35.19582,-14.25)" />
  <g
     id="g139"
     transform="translate(-35.19582,-14.25)"
     style="stroke-width:1.09999998;stroke-miterlimit:4;stroke-dasharray:none" />
  <polyline
     style="fill:none;stroke:#000000;stroke-width:1.09999998;stroke-dasharray:none;stroke-miterlimit:4"
     id="polyline143"
     points="229.152,156.712 220.811,153.615 "
     transform="translate(-35.19582,-14.25)" />
  <g
     id="g145"
     transform="translate(-35.19582,-14.25)"
     style="stroke-width:1.09999998;stroke-miterlimit:4;stroke-dasharray:none" />
  <polyline
     style="fill:none;stroke:#000000;stroke-width:1.09999998;stroke-dasharray:none;stroke-miterlimit:4"
     id="polyline149"
     points="104.037,107.160 104.037,91.675 "
     transform="translate(-35.19582,-14.25)" />
  <g
     id="g151"
     transform="translate(-35.19582,-14.25)"
     style="stroke-width:1.09999998;stroke-miterlimit:4;stroke-dasharray:none" />
  <polyline
     style="fill:none;stroke:#000000;stroke-width:1.09999998;stroke-dasharray:none;stroke-miterlimit:4"
     id="polyline155"
     points="204.129,107.160 204.129,91.675 "
     transform="translate(-35.19582,-14.25)" />
  <g
     id="g157"
     transform="translate(-35.19582,-14.25)"
     style="stroke-width:1.09999998;stroke-miterlimit:4;stroke-dasharray:none" />
  <polyline
     style="fill:none;stroke:#000000;stroke-width:1.09999998;stroke-dasharray:none;stroke-miterlimit:4"
     id="polyline161"
     points="104.037,102.514 204.129,102.514 "
     transform="translate(-35.19582,-14.25)" />
  <g
     id="g163"
     transform="translate(-35.19582,-14.25)"
     style="stroke-width:1.09999998;stroke-miterlimit:4;stroke-dasharray:none" />
  <polyline
     style="fill:none;stroke:#000000;stroke-width:1.09999998;stroke-dasharray:none;stroke-miterlimit:4"
     id="polyline167"
     points="104.037,102.514 112.378,105.612 "
     transform="translate(-35.19582,-14.25)" />
  <g
     id="g169"
     transform="translate(-35.19582,-14.25)"
     style="stroke-width:1.09999998;stroke-miterlimit:4;stroke-dasharray:none" />
  <polyline
     style="fill:none;stroke:#000000;stroke-width:1.09999998;stroke-dasharray:none;stroke-miterlimit:4"
     id="polyline173"
     points="204.129,102.514 195.788,105.612 "
     transform="translate(-35.19582,-14.25)" />
  <g
     id="g175"
     transform="translate(-35.19582,-14.25)"
     style="stroke-width:1.09999998;stroke-miterlimit:4;stroke-dasharray:none" />
  <polyline
     style="fill:none;stroke:#000000;stroke-width:1.09999998;stroke-dasharray:none;stroke-miterlimit:4"
     id="polyline179"
     points="104.037,102.514 112.378,99.418 "
     transform="translate(-35.19582,-14.25)" />
  <g
     id="g181"
     transform="translate(-35.19582,-14.25)"
     style="stroke-width:1.09999998;stroke-miterlimit:4;stroke-dasharray:none" />
  <polyline
     style="fill:none;stroke:#000000;stroke-width:1.09999998;stroke-dasharray:none;stroke-miterlimit:4"
     id="polyline185"
     points="204.129,102.514 195.788,99.418 "
     transform="translate(-35.19582,-14.25)" />
  <g
     id="g187"
     transform="translate(-35.19582,-14.25)"
     style="stroke-width:1.09999998;stroke-miterlimit:4;stroke-dasharray:none" />
  <text
     xml:space="preserve"
     style="font-size:40px;font-style:normal;font-weight:normal;line-height:125%;fill:#000000;fill-opacity:1;stroke:none;stroke-width:1px;stroke-linecap:butt;stroke-linejoin:miter;stroke-opacity:1;font-family:Bitstream Vera Sans"
     x="200.84714"
     y="70.811333"
     id="text4051"
     sodipodi:linespacing="125%"><tspan
       sodipodi:role="line"
       id="tspan4053"
       x="200.84714"
       y="70.811333"
       style="font-size:20px;font-style:oblique;font-variant:normal;font-weight:normal;font-stretch:normal;text-align:start;line-height:125%;writing-mode:lr-tb;text-anchor:start;font-family:Bitstream Vera Sans;-inkscape-font-specification:Bitstream Vera Sans Oblique">x</tspan></text>
  <text
     sodipodi:linespacing="125%"
     id="text4055"
     y="24.827906"
     x="7.9281731"
     style="font-size:40px;font-style:normal;font-weight:normal;line-height:125%;fill:#000000;fill-opacity:1;stroke:none;stroke-width:1px;stroke-linecap:butt;stroke-linejoin:miter;stroke-opacity:1;font-family:Bitstream Vera Sans"
     xml:space="preserve"><tspan
       style="font-size:20px;font-style:oblique;font-variant:normal;font-weight:normal;font-stretch:normal;text-align:start;line-height:125%;writing-mode:lr-tb;text-anchor:start;font-family:Bitstream Vera Sans;-inkscape-font-specification:Bitstream Vera Sans Oblique"
       y="24.827906"
       x="7.9281731"
       id="tspan4057"
       sodipodi:role="line">y</tspan></text>
  <text
     xml:space="preserve"
     style="font-size:40px;font-style:normal;font-weight:normal;line-height:125%;fill:#000000;fill-opacity:1;stroke:none;stroke-width:1px;stroke-linecap:butt;stroke-linejoin:miter;stroke-opacity:1;font-family:Bitstream Vera Sans"
     x="78.22467"
     y="40.684258"
     id="text4059"
     sodipodi:linespacing="125%"><tspan
       sodipodi:role="line"
       id="tspan4061"
       x="78.22467"
       y="40.684258"
       style="font-size:20px;font-style:oblique;font-variant:normal;font-weight:normal;font-stretch:normal;text-align:start;line-height:125%;writing-mode:lr-tb;text-anchor:start;font-family:Bitstream Vera Sans;-inkscape-font-specification:Bitstream Vera Sans Oblique" /></text>
  <text
     xml:space="preserve"
     style="font-size:27.99999962px;font-style:normal;font-variant:normal;font-weight:normal;font-stretch:normal;text-align:start;line-height:125%;writing-mode:lr;text-anchor:start;fill:#000000;fill-opacity:1;stroke:none;stroke-width:1px;stroke-linecap:butt;stroke-linejoin:miter;stroke-opacity:1;font-family:Bitstream Vera Sans;-inkscape-font-specification:Bitstream Vera Sans"
     x="88.795578"
     y="53.369343"
     id="text4203"
     sodipodi:linespacing="125%"><tspan
       sodipodi:role="line"
       id="tspan4205"
       x="88.795578"
       y="53.369343">λ</tspan></text>
</svg>
